<?xml version="1.0" encoding="us-ascii" standalone="no"?><svg xmlns="http://www.w3.org/2000/svg" xmlns:xlink="http://www.w3.org/1999/xlink" contentStyleType="text/css" height="1351px" preserveAspectRatio="none" style="width:4242px;height:1351px;background:#FFFFFF;" version="1.1" viewBox="0 0 4242 1351" width="4242px" zoomAndPan="magnify"><defs/><g><!--cluster Convertisseur--><g id="cluster_Convertisseur"><path d="M8.5,38.5 L121.5,38.5 A3.75,3.75 0 0 1 124,41 L131,60.7969 L939.5,60.7969 A2.5,2.5 0 0 1 942,63.2969 L942,418.5 A2.5,2.5 0 0 1 939.5,421 L8.5,421 A2.5,2.5 0 0 1 6,418.5 L6,41 A2.5,2.5 0 0 1 8.5,38.5 " fill="none" style="stroke:#000000;stroke-width:1.5;"/><line style="stroke:#000000;stroke-width:1.5;" x1="6" x2="131" y1="60.7969" y2="60.7969"/><text fill="#000000" font-family="sans-serif" font-size="14" font-weight="bold" lengthAdjust="spacing" textLength="112" x="10" y="53.4951">Convertisseur</text></g><!--cluster MultiCashFlowCommon--><g id="cluster_MultiCashFlowCommon"><path d="M984.5,249 L1167.5,249 A3.75,3.75 0 0 1 1170,251.5 L1177,271.2969 L1539.5,271.2969 A2.5,2.5 0 0 1 1542,273.7969 L1542,614 A2.5,2.5 0 0 1 1539.5,616.5 L984.5,616.5 A2.5,2.5 0 0 1 982,614 L982,251.5 A2.5,2.5 0 0 1 984.5,249 " fill="none" style="stroke:#000000;stroke-width:1.5;"/><line style="stroke:#000000;stroke-width:1.5;" x1="982" x2="1177" y1="271.2969" y2="271.2969"/><text fill="#000000" font-family="sans-serif" font-size="14" font-weight="bold" lengthAdjust="spacing" textLength="182" x="986" y="263.9951">MultiCashFlowCommon</text></g><!--cluster HedginigEngine--><g id="cluster_HedginigEngine"><path d="M1584.5,6 L1707.5,6 A3.75,3.75 0 0 1 1710,8.5 L1717,28.2969 L3420.5,28.2969 A2.5,2.5 0 0 1 3423,30.7969 L3423,638.5 A2.5,2.5 0 0 1 3420.5,641 L1584.5,641 A2.5,2.5 0 0 1 1582,638.5 L1582,8.5 A2.5,2.5 0 0 1 1584.5,6 " fill="none" style="stroke:#000000;stroke-width:1.5;"/><line style="stroke:#000000;stroke-width:1.5;" x1="1582" x2="1717" y1="28.2969" y2="28.2969"/><text fill="#000000" font-family="sans-serif" font-size="14" font-weight="bold" lengthAdjust="spacing" textLength="122" x="1586" y="20.9951">HedginigEngine</text></g><!--cluster Grpc--><g id="cluster_Grpc"><path d="M2860.5,706 L2899.5,706 A3.75,3.75 0 0 1 2902,708.5 L2909,728.2969 L3356.5,728.2969 A2.5,2.5 0 0 1 3359,730.7969 L3359,1223 A2.5,2.5 0 0 1 3356.5,1225.5 L2860.5,1225.5 A2.5,2.5 0 0 1 2858,1223 L2858,708.5 A2.5,2.5 0 0 1 2860.5,706 " fill="none" style="stroke:#000000;stroke-width:1.5;"/><line style="stroke:#000000;stroke-width:1.5;" x1="2858" x2="2909" y1="728.2969" y2="728.2969"/><text fill="#000000" font-family="sans-serif" font-size="14" font-weight="bold" lengthAdjust="spacing" textLength="38" x="2862" y="720.9951">Grpc</text></g><!--cluster PricerEngine--><g id="cluster_PricerEngine"><path d="M3457.5,493 L3558.5,493 A3.75,3.75 0 0 1 3561,495.5 L3568,515.2969 L4232.5,515.2969 A2.5,2.5 0 0 1 4235,517.7969 L4235,1342 A2.5,2.5 0 0 1 4232.5,1344.5 L3457.5,1344.5 A2.5,2.5 0 0 1 3455,1342 L3455,495.5 A2.5,2.5 0 0 1 3457.5,493 " fill="none" style="stroke:#000000;stroke-width:1.5;"/><line style="stroke:#000000;stroke-width:1.5;" x1="3455" x2="3568" y1="515.2969" y2="515.2969"/><text fill="#000000" font-family="sans-serif" font-size="14" font-weight="bold" lengthAdjust="spacing" textLength="100" x="3459" y="507.9951">PricerEngine</text></g><!--class IConvertisseurFile--><g id="elem_IConvertisseurFile"><rect codeLine="5" fill="#F1F1F1" height="64.2969" id="IConvertisseurFile" rx="2.5" ry="2.5" style="stroke:#181818;stroke-width:0.5;" width="254" x="269" y="333"/><ellipse cx="330.75" cy="349" fill="#B4A7E5" rx="11" ry="11" style="stroke:#181818;stroke-width:1.0;"/><path d="M326.6719,344.7656 L326.6719,342.6094 L334.0625,342.6094 L334.0625,344.7656 L331.5938,344.7656 L331.5938,352.8438 L334.0625,352.8438 L334.0625,355 L326.6719,355 L326.6719,352.8438 L329.1406,352.8438 L329.1406,344.7656 L326.6719,344.7656 Z " fill="#000000"/><text fill="#000000" font-family="sans-serif" font-size="14" font-style="italic" lengthAdjust="spacing" textLength="122" x="351.25" y="353.8467">IConvertisseurFile</text><line style="stroke:#181818;stroke-width:0.5;" x1="270" x2="522" y1="365" y2="365"/><ellipse cx="280" cy="378.6484" fill="none" rx="3" ry="3" style="stroke:#038048;stroke-width:1.0;"/><text fill="#000000" font-family="sans-serif" font-size="14" lengthAdjust="spacing" textLength="228" x="289" y="381.9951">protected abstract string Chemin</text><line style="stroke:#181818;stroke-width:0.5;" x1="270" x2="522" y1="389.2969" y2="389.2969"/></g><!--class CsvToListDataFeed--><g id="elem_CsvToListDataFeed"><rect codeLine="9" fill="#F1F1F1" height="64.2969" id="CsvToListDataFeed" rx="2.5" ry="2.5" style="stroke:#181818;stroke-width:0.5;" width="353" x="545.5" y="81.5"/><ellipse cx="651.25" cy="97.5" fill="#ADD1B2" rx="11" ry="11" style="stroke:#181818;stroke-width:1.0;"/><path d="M654.2188,103.1406 Q653.6406,103.4375 653,103.5781 Q652.3594,103.7344 651.6563,103.7344 Q649.1563,103.7344 647.8281,102.0938 Q646.5156,100.4375 646.5156,97.3125 Q646.5156,94.1875 647.8281,92.5313 Q649.1563,90.875 651.6563,90.875 Q652.3594,90.875 653,91.0313 Q653.6563,91.1875 654.2188,91.4844 L654.2188,94.2031 Q653.5938,93.625 653,93.3594 Q652.4063,93.0781 651.7813,93.0781 Q650.4375,93.0781 649.75,94.1563 Q649.0625,95.2188 649.0625,97.3125 Q649.0625,99.4063 649.75,100.4844 Q650.4375,101.5469 651.7813,101.5469 Q652.4063,101.5469 653,101.2813 Q653.5938,101 654.2188,100.4219 L654.2188,103.1406 Z " fill="#000000"/><text fill="#000000" font-family="sans-serif" font-size="14" lengthAdjust="spacing" textLength="133" x="671.75" y="102.3467">CsvToListDataFeed</text><line style="stroke:#181818;stroke-width:0.5;" x1="546.5" x2="897.5" y1="113.5" y2="113.5"/><line style="stroke:#181818;stroke-width:0.5;" x1="546.5" x2="897.5" y1="121.5" y2="121.5"/><ellipse cx="556.5" cy="135.1484" fill="#84BE84" rx="3" ry="3" style="stroke:#038048;stroke-width:1.0;"/><text fill="#000000" font-family="sans-serif" font-size="14" lengthAdjust="spacing" textLength="327" x="565.5" y="138.4951">List&lt;DataFeed&gt; ConverteCSVToListDataFeed()</text></g><!--class JsonToTestParams--><g id="elem_JsonToTestParams"><rect codeLine="13" fill="#F1F1F1" height="64.2969" id="JsonToTestParams" rx="2.5" ry="2.5" style="stroke:#181818;stroke-width:0.5;" width="229" x="281.5" y="81.5"/><ellipse cx="327.25" cy="97.5" fill="#ADD1B2" rx="11" ry="11" style="stroke:#181818;stroke-width:1.0;"/><path d="M330.2188,103.1406 Q329.6406,103.4375 329,103.5781 Q328.3594,103.7344 327.6563,103.7344 Q325.1563,103.7344 323.8281,102.0938 Q322.5156,100.4375 322.5156,97.3125 Q322.5156,94.1875 323.8281,92.5313 Q325.1563,90.875 327.6563,90.875 Q328.3594,90.875 329,91.0313 Q329.6563,91.1875 330.2188,91.4844 L330.2188,94.2031 Q329.5938,93.625 329,93.3594 Q328.4063,93.0781 327.7813,93.0781 Q326.4375,93.0781 325.75,94.1563 Q325.0625,95.2188 325.0625,97.3125 Q325.0625,99.4063 325.75,100.4844 Q326.4375,101.5469 327.7813,101.5469 Q328.4063,101.5469 329,101.2813 Q329.5938,101 330.2188,100.4219 L330.2188,103.1406 Z " fill="#000000"/><text fill="#000000" font-family="sans-serif" font-size="14" lengthAdjust="spacing" textLength="129" x="347.75" y="102.3467">JsonToTestParams</text><line style="stroke:#181818;stroke-width:0.5;" x1="282.5" x2="509.5" y1="113.5" y2="113.5"/><line style="stroke:#181818;stroke-width:0.5;" x1="282.5" x2="509.5" y1="121.5" y2="121.5"/><ellipse cx="292.5" cy="135.1484" fill="#84BE84" rx="3" ry="3" style="stroke:#038048;stroke-width:1.0;"/><text fill="#000000" font-family="sans-serif" font-size="14" lengthAdjust="spacing" textLength="203" x="301.5" y="138.4951">ConverteJSONToParameters()</text></g><!--class ListOuputToJson--><g id="elem_ListOuputToJson"><rect codeLine="17" fill="#F1F1F1" height="64.2969" id="ListOuputToJson" rx="2.5" ry="2.5" style="stroke:#181818;stroke-width:0.5;" width="216" x="30" y="81.5"/><ellipse cx="77.25" cy="97.5" fill="#ADD1B2" rx="11" ry="11" style="stroke:#181818;stroke-width:1.0;"/><path d="M80.2188,103.1406 Q79.6406,103.4375 79,103.5781 Q78.3594,103.7344 77.6563,103.7344 Q75.1563,103.7344 73.8281,102.0938 Q72.5156,100.4375 72.5156,97.3125 Q72.5156,94.1875 73.8281,92.5313 Q75.1563,90.875 77.6563,90.875 Q78.3594,90.875 79,91.0313 Q79.6563,91.1875 80.2188,91.4844 L80.2188,94.2031 Q79.5938,93.625 79,93.3594 Q78.4063,93.0781 77.7813,93.0781 Q76.4375,93.0781 75.75,94.1563 Q75.0625,95.2188 75.0625,97.3125 Q75.0625,99.4063 75.75,100.4844 Q76.4375,101.5469 77.7813,101.5469 Q78.4063,101.5469 79,101.2813 Q79.5938,101 80.2188,100.4219 L80.2188,103.1406 Z " fill="#000000"/><text fill="#000000" font-family="sans-serif" font-size="14" lengthAdjust="spacing" textLength="113" x="97.75" y="102.3467">ListOuputToJson</text><line style="stroke:#181818;stroke-width:0.5;" x1="31" x2="245" y1="113.5" y2="113.5"/><line style="stroke:#181818;stroke-width:0.5;" x1="31" x2="245" y1="121.5" y2="121.5"/><ellipse cx="41" cy="135.1484" fill="#84BE84" rx="3" ry="3" style="stroke:#038048;stroke-width:1.0;"/><text fill="#000000" font-family="sans-serif" font-size="14" lengthAdjust="spacing" textLength="190" x="50" y="138.4951">ConverteListOuputToJSON()</text></g><!--class DataFeed--><g id="elem_DataFeed"><rect codeLine="29" fill="#F1F1F1" height="80.5938" id="DataFeed" rx="2.5" ry="2.5" style="stroke:#181818;stroke-width:0.5;" width="274" x="1025" y="324.5"/><ellipse cx="1124.25" cy="340.5" fill="#ADD1B2" rx="11" ry="11" style="stroke:#181818;stroke-width:1.0;"/><path d="M1127.2188,346.1406 Q1126.6406,346.4375 1126,346.5781 Q1125.3594,346.7344 1124.6563,346.7344 Q1122.1563,346.7344 1120.8281,345.0938 Q1119.5156,343.4375 1119.5156,340.3125 Q1119.5156,337.1875 1120.8281,335.5313 Q1122.1563,333.875 1124.6563,333.875 Q1125.3594,333.875 1126,334.0313 Q1126.6563,334.1875 1127.2188,334.4844 L1127.2188,337.2031 Q1126.5938,336.625 1126,336.3594 Q1125.4063,336.0781 1124.7813,336.0781 Q1123.4375,336.0781 1122.75,337.1563 Q1122.0625,338.2188 1122.0625,340.3125 Q1122.0625,342.4063 1122.75,343.4844 Q1123.4375,344.5469 1124.7813,344.5469 Q1125.4063,344.5469 1126,344.2813 Q1126.5938,344 1127.2188,343.4219 L1127.2188,346.1406 Z " fill="#000000"/><text fill="#000000" font-family="sans-serif" font-size="14" lengthAdjust="spacing" textLength="67" x="1144.75" y="345.3467">DataFeed</text><line style="stroke:#181818;stroke-width:0.5;" x1="1026" x2="1298" y1="356.5" y2="356.5"/><ellipse cx="1036" cy="370.1484" fill="none" rx="3" ry="3" style="stroke:#038048;stroke-width:1.0;"/><text fill="#000000" font-family="sans-serif" font-size="14" lengthAdjust="spacing" textLength="248" x="1045" y="373.4951">Dictionary&lt;string, double&gt; PriceList</text><ellipse cx="1036" cy="386.4453" fill="none" rx="3" ry="3" style="stroke:#038048;stroke-width:1.0;"/><text fill="#000000" font-family="sans-serif" font-size="14" lengthAdjust="spacing" textLength="104" x="1045" y="389.792">DateTime Date</text><line style="stroke:#181818;stroke-width:0.5;" x1="1026" x2="1298" y1="397.0938" y2="397.0938"/></g><!--class OutputData--><g id="elem_OutputData"><rect codeLine="34" fill="#F1F1F1" height="145.7813" id="OutputData" rx="2.5" ry="2.5" style="stroke:#181818;stroke-width:0.5;" width="184" x="1334" y="292"/><ellipse cx="1381.75" cy="308" fill="#ADD1B2" rx="11" ry="11" style="stroke:#181818;stroke-width:1.0;"/><path d="M1384.7188,313.6406 Q1384.1406,313.9375 1383.5,314.0781 Q1382.8594,314.2344 1382.1563,314.2344 Q1379.6563,314.2344 1378.3281,312.5938 Q1377.0156,310.9375 1377.0156,307.8125 Q1377.0156,304.6875 1378.3281,303.0313 Q1379.6563,301.375 1382.1563,301.375 Q1382.8594,301.375 1383.5,301.5313 Q1384.1563,301.6875 1384.7188,301.9844 L1384.7188,304.7031 Q1384.0938,304.125 1383.5,303.8594 Q1382.9063,303.5781 1382.2813,303.5781 Q1380.9375,303.5781 1380.25,304.6563 Q1379.5625,305.7188 1379.5625,307.8125 Q1379.5625,309.9063 1380.25,310.9844 Q1380.9375,312.0469 1382.2813,312.0469 Q1382.9063,312.0469 1383.5,311.7813 Q1384.0938,311.5 1384.7188,310.9219 L1384.7188,313.6406 Z " fill="#000000"/><text fill="#000000" font-family="sans-serif" font-size="14" lengthAdjust="spacing" textLength="80" x="1402.25" y="312.8467">OutputData</text><line style="stroke:#181818;stroke-width:0.5;" x1="1335" x2="1517" y1="324" y2="324"/><ellipse cx="1345" cy="337.6484" fill="none" rx="3" ry="3" style="stroke:#038048;stroke-width:1.0;"/><text fill="#000000" font-family="sans-serif" font-size="14" lengthAdjust="spacing" textLength="104" x="1354" y="340.9951">DateTime Date</text><ellipse cx="1345" cy="353.9453" fill="none" rx="3" ry="3" style="stroke:#038048;stroke-width:1.0;"/><text fill="#000000" font-family="sans-serif" font-size="14" lengthAdjust="spacing" textLength="90" x="1354" y="357.292">double Value</text><ellipse cx="1345" cy="370.2422" fill="none" rx="3" ry="3" style="stroke:#038048;stroke-width:1.0;"/><text fill="#000000" font-family="sans-serif" font-size="14" lengthAdjust="spacing" textLength="108" x="1354" y="373.5889">Double[] Deltas</text><ellipse cx="1345" cy="386.5391" fill="none" rx="3" ry="3" style="stroke:#038048;stroke-width:1.0;"/><text fill="#000000" font-family="sans-serif" font-size="14" lengthAdjust="spacing" textLength="158" x="1354" y="389.8857">Double[] DeltasStdDev</text><ellipse cx="1345" cy="402.8359" fill="none" rx="3" ry="3" style="stroke:#038048;stroke-width:1.0;"/><text fill="#000000" font-family="sans-serif" font-size="14" lengthAdjust="spacing" textLength="86" x="1354" y="406.1826">double Price</text><ellipse cx="1345" cy="419.1328" fill="none" rx="3" ry="3" style="stroke:#038048;stroke-width:1.0;"/><text fill="#000000" font-family="sans-serif" font-size="14" lengthAdjust="spacing" textLength="136" x="1354" y="422.4795">double PriceStdDev</text><line style="stroke:#181818;stroke-width:0.5;" x1="1335" x2="1517" y1="429.7813" y2="429.7813"/></g><!--class TestParameters--><g id="elem_TestParameters"><rect codeLine="43" fill="#F1F1F1" height="48" id="TestParameters" rx="2.5" ry="2.5" style="stroke:#181818;stroke-width:0.5;" width="142" x="1091" y="544.5"/><ellipse cx="1106" cy="560.5" fill="#ADD1B2" rx="11" ry="11" style="stroke:#181818;stroke-width:1.0;"/><path d="M1108.9688,566.1406 Q1108.3906,566.4375 1107.75,566.5781 Q1107.1094,566.7344 1106.4063,566.7344 Q1103.9063,566.7344 1102.5781,565.0938 Q1101.2656,563.4375 1101.2656,560.3125 Q1101.2656,557.1875 1102.5781,555.5313 Q1103.9063,553.875 1106.4063,553.875 Q1107.1094,553.875 1107.75,554.0313 Q1108.4063,554.1875 1108.9688,554.4844 L1108.9688,557.2031 Q1108.3438,556.625 1107.75,556.3594 Q1107.1563,556.0781 1106.5313,556.0781 Q1105.1875,556.0781 1104.5,557.1563 Q1103.8125,558.2188 1103.8125,560.3125 Q1103.8125,562.4063 1104.5,563.4844 Q1105.1875,564.5469 1106.5313,564.5469 Q1107.1563,564.5469 1107.75,564.2813 Q1108.3438,564 1108.9688,563.4219 L1108.9688,566.1406 Z " fill="#000000"/><text fill="#000000" font-family="sans-serif" font-size="14" lengthAdjust="spacing" textLength="110" x="1120" y="565.3467">TestParameters</text><line style="stroke:#181818;stroke-width:0.5;" x1="1092" x2="1232" y1="576.5" y2="576.5"/><line style="stroke:#181818;stroke-width:0.5;" x1="1092" x2="1232" y1="584.5" y2="584.5"/></g><!--class Portfolio--><g id="elem_Portfolio"><rect codeLine="51" fill="#F1F1F1" height="129.4844" id="Portfolio" rx="2.5" ry="2.5" style="stroke:#181818;stroke-width:0.5;" width="535" x="1614.5" y="300.5"/><ellipse cx="1849.75" cy="316.5" fill="#ADD1B2" rx="11" ry="11" style="stroke:#181818;stroke-width:1.0;"/><path d="M1852.7188,322.1406 Q1852.1406,322.4375 1851.5,322.5781 Q1850.8594,322.7344 1850.1563,322.7344 Q1847.6563,322.7344 1846.3281,321.0938 Q1845.0156,319.4375 1845.0156,316.3125 Q1845.0156,313.1875 1846.3281,311.5313 Q1847.6563,309.875 1850.1563,309.875 Q1850.8594,309.875 1851.5,310.0313 Q1852.1563,310.1875 1852.7188,310.4844 L1852.7188,313.2031 Q1852.0938,312.625 1851.5,312.3594 Q1850.9063,312.0781 1850.2813,312.0781 Q1848.9375,312.0781 1848.25,313.1563 Q1847.5625,314.2188 1847.5625,316.3125 Q1847.5625,318.4063 1848.25,319.4844 Q1848.9375,320.5469 1850.2813,320.5469 Q1850.9063,320.5469 1851.5,320.2813 Q1852.0938,320 1852.7188,319.4219 L1852.7188,322.1406 Z " fill="#000000"/><text fill="#000000" font-family="sans-serif" font-size="14" lengthAdjust="spacing" textLength="56" x="1870.25" y="321.3467">Portfolio</text><line style="stroke:#181818;stroke-width:0.5;" x1="1615.5" x2="2148.5" y1="332.5" y2="332.5"/><ellipse cx="1625.5" cy="346.1484" fill="none" rx="3" ry="3" style="stroke:#038048;stroke-width:1.0;"/><text fill="#000000" font-family="sans-serif" font-size="14" lengthAdjust="spacing" textLength="89" x="1634.5" y="349.4951">Double Cash</text><ellipse cx="1625.5" cy="362.4453" fill="none" rx="3" ry="3" style="stroke:#038048;stroke-width:1.0;"/><text fill="#000000" font-family="sans-serif" font-size="14" lengthAdjust="spacing" textLength="286" x="1634.5" y="365.792">Dictionary&lt;string, double&gt; Compositions</text><ellipse cx="1625.5" cy="378.7422" fill="none" rx="3" ry="3" style="stroke:#038048;stroke-width:1.0;"/><text fill="#000000" font-family="sans-serif" font-size="14" lengthAdjust="spacing" textLength="102" x="1634.5" y="382.0889">DateTime date</text><line style="stroke:#181818;stroke-width:0.5;" x1="1615.5" x2="2148.5" y1="389.3906" y2="389.3906"/><ellipse cx="1625.5" cy="403.0391" fill="#84BE84" rx="3" ry="3" style="stroke:#038048;stroke-width:1.0;"/><text fill="#000000" font-family="sans-serif" font-size="14" lengthAdjust="spacing" textLength="509" x="1634.5" y="406.3857">void UpdateCompo(Dictionary&lt;string, double&gt; Compos ,  DataFeed feed)</text><ellipse cx="1625.5" cy="419.3359" fill="#84BE84" rx="3" ry="3" style="stroke:#038048;stroke-width:1.0;"/><text fill="#000000" font-family="sans-serif" font-size="14" lengthAdjust="spacing" textLength="283" x="1634.5" y="422.6826">double GetPortfolioValue(DataFeed feed)</text></g><!--class Pricer--><g id="elem_Pricer"><rect codeLine="60" fill="#F1F1F1" height="162.0781" id="Pricer" rx="2.5" ry="2.5" style="stroke:#181818;stroke-width:0.5;" width="911" x="2184.5" y="284"/><ellipse cx="2616.25" cy="300" fill="#ADD1B2" rx="11" ry="11" style="stroke:#181818;stroke-width:1.0;"/><path d="M2619.2188,305.6406 Q2618.6406,305.9375 2618,306.0781 Q2617.3594,306.2344 2616.6563,306.2344 Q2614.1563,306.2344 2612.8281,304.5938 Q2611.5156,302.9375 2611.5156,299.8125 Q2611.5156,296.6875 2612.8281,295.0313 Q2614.1563,293.375 2616.6563,293.375 Q2617.3594,293.375 2618,293.5313 Q2618.6563,293.6875 2619.2188,293.9844 L2619.2188,296.7031 Q2618.5938,296.125 2618,295.8594 Q2617.4063,295.5781 2616.7813,295.5781 Q2615.4375,295.5781 2614.75,296.6563 Q2614.0625,297.7188 2614.0625,299.8125 Q2614.0625,301.9063 2614.75,302.9844 Q2615.4375,304.0469 2616.7813,304.0469 Q2617.4063,304.0469 2618,303.7813 Q2618.5938,303.5 2619.2188,302.9219 L2619.2188,305.6406 Z " fill="#000000"/><text fill="#000000" font-family="sans-serif" font-size="14" lengthAdjust="spacing" textLength="39" x="2636.75" y="304.8467">Pricer</text><line style="stroke:#181818;stroke-width:0.5;" x1="2185.5" x2="3094.5" y1="316" y2="316"/><ellipse cx="2195.5" cy="329.6484" fill="none" rx="3" ry="3" style="stroke:#038048;stroke-width:1.0;"/><text fill="#000000" font-family="sans-serif" font-size="14" lengthAdjust="spacing" textLength="161" x="2204.5" y="332.9951">GrpcPricingClient Client</text><ellipse cx="2195.5" cy="345.9453" fill="none" rx="3" ry="3" style="stroke:#038048;stroke-width:1.0;"/><text fill="#000000" font-family="sans-serif" font-size="14" lengthAdjust="spacing" textLength="86" x="2204.5" y="349.292">double price</text><ellipse cx="2195.5" cy="362.2422" fill="none" rx="3" ry="3" style="stroke:#038048;stroke-width:1.0;"/><text fill="#000000" font-family="sans-serif" font-size="14" lengthAdjust="spacing" textLength="104" x="2204.5" y="365.5889">double[] deltas</text><ellipse cx="2195.5" cy="378.5391" fill="none" rx="3" ry="3" style="stroke:#038048;stroke-width:1.0;"/><text fill="#000000" font-family="sans-serif" font-size="14" lengthAdjust="spacing" textLength="136" x="2204.5" y="381.8857">double priceStdDev</text><ellipse cx="2195.5" cy="394.8359" fill="none" rx="3" ry="3" style="stroke:#038048;stroke-width:1.0;"/><text fill="#000000" font-family="sans-serif" font-size="14" lengthAdjust="spacing" textLength="154" x="2204.5" y="398.1826">double[] deltasStdDev</text><line style="stroke:#181818;stroke-width:0.5;" x1="2185.5" x2="3094.5" y1="405.4844" y2="405.4844"/><ellipse cx="2195.5" cy="419.1328" fill="#84BE84" rx="3" ry="3" style="stroke:#038048;stroke-width:1.0;"/><text fill="#000000" font-family="sans-serif" font-size="14" lengthAdjust="spacing" textLength="885" x="2204.5" y="422.4795">PriceAndDeltas(DataFeed[] past , bool monitoringDateReached , DataTime time ) : Client.GrpcClient.PriceAndDeltas(pricingInput)</text><ellipse cx="2195.5" cy="435.4297" fill="#84BE84" rx="3" ry="3" style="stroke:#038048;stroke-width:1.0;"/><text fill="#000000" font-family="sans-serif" font-size="14" lengthAdjust="spacing" textLength="236" x="2204.5" y="438.7764">CastingListDataFeedToPastLines()</text></g><!--class GrpcPricingClient--><g id="elem_GrpcPricingClient"><rect codeLine="70" fill="#F1F1F1" height="96.8906" id="GrpcPricingClient" rx="2.5" ry="2.5" style="stroke:#181818;stroke-width:0.5;" width="650" x="2351" y="520"/><ellipse cx="2612.75" cy="536" fill="#ADD1B2" rx="11" ry="11" style="stroke:#181818;stroke-width:1.0;"/><path d="M2615.7188,541.6406 Q2615.1406,541.9375 2614.5,542.0781 Q2613.8594,542.2344 2613.1563,542.2344 Q2610.6563,542.2344 2609.3281,540.5938 Q2608.0156,538.9375 2608.0156,535.8125 Q2608.0156,532.6875 2609.3281,531.0313 Q2610.6563,529.375 2613.1563,529.375 Q2613.8594,529.375 2614.5,529.5313 Q2615.1563,529.6875 2615.7188,529.9844 L2615.7188,532.7031 Q2615.0938,532.125 2614.5,531.8594 Q2613.9063,531.5781 2613.2813,531.5781 Q2611.9375,531.5781 2611.25,532.6563 Q2610.5625,533.7188 2610.5625,535.8125 Q2610.5625,537.9063 2611.25,538.9844 Q2611.9375,540.0469 2613.2813,540.0469 Q2613.9063,540.0469 2614.5,539.7813 Q2615.0938,539.5 2615.7188,538.9219 L2615.7188,541.6406 Z " fill="#000000"/><text fill="#000000" font-family="sans-serif" font-size="14" lengthAdjust="spacing" textLength="118" x="2633.25" y="540.8467">GrpcPricingClient</text><line style="stroke:#181818;stroke-width:0.5;" x1="2352" x2="3000" y1="552" y2="552"/><ellipse cx="2362" cy="565.6484" fill="none" rx="3" ry="3" style="stroke:#038048;stroke-width:1.0;"/><text fill="#000000" font-family="sans-serif" font-size="14" lengthAdjust="spacing" textLength="151" x="2371" y="568.9951">GrpcChannel Channel</text><ellipse cx="2362" cy="581.9453" fill="none" rx="3" ry="3" style="stroke:#038048;stroke-width:1.0;"/><text fill="#000000" font-family="sans-serif" font-size="14" lengthAdjust="spacing" textLength="187" x="2371" y="585.292">GrpcPricerClient GrpcClient</text><line style="stroke:#181818;stroke-width:0.5;" x1="2352" x2="3000" y1="592.5938" y2="592.5938"/><ellipse cx="2362" cy="606.2422" fill="#84BE84" rx="3" ry="3" style="stroke:#038048;stroke-width:1.0;"/><text fill="#000000" font-family="sans-serif" font-size="14" lengthAdjust="spacing" textLength="624" x="2371" y="609.5889">GrpcPricingClient(string address) : GrpcClient = new GrpcPricer.GrpcPricerClient(Channel);</text></g><!--class Rebalacing--><g id="elem_Rebalacing"><rect codeLine="78" fill="#F1F1F1" height="64.2969" id="Rebalacing" rx="2.5" ry="2.5" style="stroke:#181818;stroke-width:0.5;" width="268" x="3131" y="333"/><ellipse cx="3222.75" cy="349" fill="#A9DCDF" rx="11" ry="11" style="stroke:#181818;stroke-width:1.0;"/><path d="M3222.8594,344.3438 L3221.7031,349.4219 L3224.0313,349.4219 L3222.8594,344.3438 Z M3221.375,342.1094 L3224.3594,342.1094 L3227.7188,354.5 L3225.2656,354.5 L3224.5,351.4375 L3221.2188,351.4375 L3220.4688,354.5 L3218.0313,354.5 L3221.375,342.1094 Z " fill="#000000"/><text fill="#000000" font-family="sans-serif" font-size="14" font-style="italic" lengthAdjust="spacing" textLength="76" x="3243.25" y="353.8467">Rebalacing</text><line style="stroke:#181818;stroke-width:0.5;" x1="3132" x2="3398" y1="365" y2="365"/><line style="stroke:#181818;stroke-width:0.5;" x1="3132" x2="3398" y1="373" y2="373"/><ellipse cx="3142" cy="386.6484" fill="#84BE84" rx="3" ry="3" style="stroke:#038048;stroke-width:1.0;"/><text fill="#000000" font-family="sans-serif" font-size="14" lengthAdjust="spacing" textLength="242" x="3151" y="389.9951">bool IsRebalancing(DateTime date)</text></g><!--class FixedRebalacing--><g id="elem_FixedRebalacing"><rect codeLine="82" fill="#F1F1F1" height="96.8906" id="FixedRebalacing" rx="2.5" ry="2.5" style="stroke:#181818;stroke-width:0.5;" width="328" x="3071" y="520"/><ellipse cx="3174.75" cy="536" fill="#ADD1B2" rx="11" ry="11" style="stroke:#181818;stroke-width:1.0;"/><path d="M3177.7188,541.6406 Q3177.1406,541.9375 3176.5,542.0781 Q3175.8594,542.2344 3175.1563,542.2344 Q3172.6563,542.2344 3171.3281,540.5938 Q3170.0156,538.9375 3170.0156,535.8125 Q3170.0156,532.6875 3171.3281,531.0313 Q3172.6563,529.375 3175.1563,529.375 Q3175.8594,529.375 3176.5,529.5313 Q3177.1563,529.6875 3177.7188,529.9844 L3177.7188,532.7031 Q3177.0938,532.125 3176.5,531.8594 Q3175.9063,531.5781 3175.2813,531.5781 Q3173.9375,531.5781 3173.25,532.6563 Q3172.5625,533.7188 3172.5625,535.8125 Q3172.5625,537.9063 3173.25,538.9844 Q3173.9375,540.0469 3175.2813,540.0469 Q3175.9063,540.0469 3176.5,539.7813 Q3177.0938,539.5 3177.7188,538.9219 L3177.7188,541.6406 Z " fill="#000000"/><text fill="#000000" font-family="sans-serif" font-size="14" lengthAdjust="spacing" textLength="112" x="3195.25" y="540.8467">FixedRebalacing</text><line style="stroke:#181818;stroke-width:0.5;" x1="3072" x2="3398" y1="552" y2="552"/><rect fill="none" height="6" style="stroke:#C82930;stroke-width:1.0;" width="6" x="3079" y="562.6484"/><text fill="#000000" font-family="sans-serif" font-size="14" lengthAdjust="spacing" textLength="63" x="3091" y="568.9951">int Count</text><rect fill="none" height="6" style="stroke:#C82930;stroke-width:1.0;" width="6" x="3079" y="578.9453"/><text fill="#000000" font-family="sans-serif" font-size="14" lengthAdjust="spacing" textLength="74" x="3091" y="585.292">int Periode</text><line style="stroke:#181818;stroke-width:0.5;" x1="3072" x2="3398" y1="592.5938" y2="592.5938"/><ellipse cx="3082" cy="606.2422" fill="#84BE84" rx="3" ry="3" style="stroke:#038048;stroke-width:1.0;"/><text fill="#000000" font-family="sans-serif" font-size="14" lengthAdjust="spacing" textLength="302" x="3091" y="609.5889">override bool IsRebalancing(DateTime date)</text></g><!--class Hedging--><g id="elem_Hedging"><rect codeLine="90" fill="#F1F1F1" height="129.4844" id="Hedging" rx="2.5" ry="2.5" style="stroke:#181818;stroke-width:0.5;" width="229" x="2525.5" y="49"/><ellipse cx="2606.75" cy="65" fill="#ADD1B2" rx="11" ry="11" style="stroke:#181818;stroke-width:1.0;"/><path d="M2609.7188,70.6406 Q2609.1406,70.9375 2608.5,71.0781 Q2607.8594,71.2344 2607.1563,71.2344 Q2604.6563,71.2344 2603.3281,69.5938 Q2602.0156,67.9375 2602.0156,64.8125 Q2602.0156,61.6875 2603.3281,60.0313 Q2604.6563,58.375 2607.1563,58.375 Q2607.8594,58.375 2608.5,58.5313 Q2609.1563,58.6875 2609.7188,58.9844 L2609.7188,61.7031 Q2609.0938,61.125 2608.5,60.8594 Q2607.9063,60.5781 2607.2813,60.5781 Q2605.9375,60.5781 2605.25,61.6563 Q2604.5625,62.7188 2604.5625,64.8125 Q2604.5625,66.9063 2605.25,67.9844 Q2605.9375,69.0469 2607.2813,69.0469 Q2607.9063,69.0469 2608.5,68.7813 Q2609.0938,68.5 2609.7188,67.9219 L2609.7188,70.6406 Z " fill="#000000"/><text fill="#000000" font-family="sans-serif" font-size="14" lengthAdjust="spacing" textLength="58" x="2627.25" y="69.8467">Hedging</text><line style="stroke:#181818;stroke-width:0.5;" x1="2526.5" x2="2753.5" y1="81" y2="81"/><ellipse cx="2536.5" cy="94.6484" fill="none" rx="3" ry="3" style="stroke:#038048;stroke-width:1.0;"/><text fill="#000000" font-family="sans-serif" font-size="14" lengthAdjust="spacing" textLength="165" x="2545.5" y="97.9951">TestParameters Params</text><ellipse cx="2536.5" cy="110.9453" fill="none" rx="3" ry="3" style="stroke:#038048;stroke-width:1.0;"/><text fill="#000000" font-family="sans-serif" font-size="14" lengthAdjust="spacing" textLength="82" x="2545.5" y="114.292">Pricer Pricer</text><ellipse cx="2536.5" cy="127.2422" fill="none" rx="3" ry="3" style="stroke:#038048;stroke-width:1.0;"/><text fill="#000000" font-family="sans-serif" font-size="14" lengthAdjust="spacing" textLength="203" x="2545.5" y="130.5889">Rebalacing DetectRebalacing</text><ellipse cx="2536.5" cy="143.5391" fill="none" rx="3" ry="3" style="stroke:#038048;stroke-width:1.0;"/><text fill="#000000" font-family="sans-serif" font-size="14" lengthAdjust="spacing" textLength="197" x="2545.5" y="146.8857">List&lt;DataFeed&gt; MarketData</text><line style="stroke:#181818;stroke-width:0.5;" x1="2526.5" x2="2753.5" y1="154.1875" y2="154.1875"/><ellipse cx="2536.5" cy="167.8359" fill="#84BE84" rx="3" ry="3" style="stroke:#038048;stroke-width:1.0;"/><text fill="#000000" font-family="sans-serif" font-size="14" lengthAdjust="spacing" textLength="187" x="2545.5" y="171.1826">List&lt;OutputData&gt; Hedge()</text></g><!--class GrpcPricer--><g id="elem_GrpcPricer"><rect codeLine="109" fill="#F1F1F1" height="64.2969" id="GrpcPricer" rx="2.5" ry="2.5" style="stroke:#181818;stroke-width:0.5;" width="320" x="2958" y="749"/><ellipse cx="3077.75" cy="765" fill="#ADD1B2" rx="11" ry="11" style="stroke:#181818;stroke-width:1.0;"/><path d="M3080.7188,770.6406 Q3080.1406,770.9375 3079.5,771.0781 Q3078.8594,771.2344 3078.1563,771.2344 Q3075.6563,771.2344 3074.3281,769.5938 Q3073.0156,767.9375 3073.0156,764.8125 Q3073.0156,761.6875 3074.3281,760.0313 Q3075.6563,758.375 3078.1563,758.375 Q3078.8594,758.375 3079.5,758.5313 Q3080.1563,758.6875 3080.7188,758.9844 L3080.7188,761.7031 Q3080.0938,761.125 3079.5,760.8594 Q3078.9063,760.5781 3078.2813,760.5781 Q3076.9375,760.5781 3076.25,761.6563 Q3075.5625,762.7188 3075.5625,764.8125 Q3075.5625,766.9063 3076.25,767.9844 Q3076.9375,769.0469 3078.2813,769.0469 Q3078.9063,769.0469 3079.5,768.7813 Q3080.0938,768.5 3080.7188,767.9219 L3080.7188,770.6406 Z " fill="#000000"/><text fill="#000000" font-family="sans-serif" font-size="14" lengthAdjust="spacing" textLength="72" x="3098.25" y="769.8467">GrpcPricer</text><line style="stroke:#181818;stroke-width:0.5;" x1="2959" x2="3277" y1="781" y2="781"/><line style="stroke:#181818;stroke-width:0.5;" x1="2959" x2="3277" y1="789" y2="789"/><ellipse cx="2969" cy="802.6484" fill="#84BE84" rx="3" ry="3" style="stroke:#038048;stroke-width:1.0;"/><text fill="#000000" font-family="sans-serif" font-size="14" lengthAdjust="spacing" textLength="294" x="2978" y="805.9951">PricingOutput PriceAndDeltas(PricingInput)</text></g><!--class PricingInput--><g id="elem_PricingInput"><rect codeLine="113" fill="#F1F1F1" height="96.8906" id="PricingInput" rx="2.5" ry="2.5" style="stroke:#181818;stroke-width:0.5;" width="229" x="2890.5" y="939"/><ellipse cx="2960.25" cy="955" fill="#ADD1B2" rx="11" ry="11" style="stroke:#181818;stroke-width:1.0;"/><path d="M2963.2188,960.6406 Q2962.6406,960.9375 2962,961.0781 Q2961.3594,961.2344 2960.6563,961.2344 Q2958.1563,961.2344 2956.8281,959.5938 Q2955.5156,957.9375 2955.5156,954.8125 Q2955.5156,951.6875 2956.8281,950.0313 Q2958.1563,948.375 2960.6563,948.375 Q2961.3594,948.375 2962,948.5313 Q2962.6563,948.6875 2963.2188,948.9844 L2963.2188,951.7031 Q2962.5938,951.125 2962,950.8594 Q2961.4063,950.5781 2960.7813,950.5781 Q2959.4375,950.5781 2958.75,951.6563 Q2958.0625,952.7188 2958.0625,954.8125 Q2958.0625,956.9063 2958.75,957.9844 Q2959.4375,959.0469 2960.7813,959.0469 Q2961.4063,959.0469 2962,958.7813 Q2962.5938,958.5 2963.2188,957.9219 L2963.2188,960.6406 Z " fill="#000000"/><text fill="#000000" font-family="sans-serif" font-size="14" lengthAdjust="spacing" textLength="81" x="2980.75" y="959.8467">PricingInput</text><line style="stroke:#181818;stroke-width:0.5;" x1="2891.5" x2="3118.5" y1="971" y2="971"/><ellipse cx="2901.5" cy="984.6484" fill="none" rx="3" ry="3" style="stroke:#038048;stroke-width:1.0;"/><text fill="#000000" font-family="sans-serif" font-size="14" lengthAdjust="spacing" textLength="110" x="2910.5" y="987.9951">PastLines[] past</text><ellipse cx="2901.5" cy="1000.9453" fill="none" rx="3" ry="3" style="stroke:#038048;stroke-width:1.0;"/><text fill="#000000" font-family="sans-serif" font-size="14" lengthAdjust="spacing" textLength="203" x="2910.5" y="1004.292">bool monitoringDateReached</text><ellipse cx="2901.5" cy="1017.2422" fill="none" rx="3" ry="3" style="stroke:#038048;stroke-width:1.0;"/><text fill="#000000" font-family="sans-serif" font-size="14" lengthAdjust="spacing" textLength="82" x="2910.5" y="1020.5889">double time</text><line style="stroke:#181818;stroke-width:0.5;" x1="2891.5" x2="3118.5" y1="1027.8906" y2="1027.8906"/></g><!--class PastLines--><g id="elem_PastLines"><rect codeLine="119" fill="#F1F1F1" height="64.2969" id="PastLines" rx="2.5" ry="2.5" style="stroke:#181818;stroke-width:0.5;" width="124" x="2943" y="1137.5"/><ellipse cx="2969.7" cy="1153.5" fill="#ADD1B2" rx="11" ry="11" style="stroke:#181818;stroke-width:1.0;"/><path d="M2972.6688,1159.1406 Q2972.0906,1159.4375 2971.45,1159.5781 Q2970.8094,1159.7344 2970.1063,1159.7344 Q2967.6063,1159.7344 2966.2781,1158.0938 Q2964.9656,1156.4375 2964.9656,1153.3125 Q2964.9656,1150.1875 2966.2781,1148.5313 Q2967.6063,1146.875 2970.1063,1146.875 Q2970.8094,1146.875 2971.45,1147.0313 Q2972.1063,1147.1875 2972.6688,1147.4844 L2972.6688,1150.2031 Q2972.0438,1149.625 2971.45,1149.3594 Q2970.8563,1149.0781 2970.2313,1149.0781 Q2968.8875,1149.0781 2968.2,1150.1563 Q2967.5125,1151.2188 2967.5125,1153.3125 Q2967.5125,1155.4063 2968.2,1156.4844 Q2968.8875,1157.5469 2970.2313,1157.5469 Q2970.8563,1157.5469 2971.45,1157.2813 Q2972.0438,1157 2972.6688,1156.4219 L2972.6688,1159.1406 Z " fill="#000000"/><text fill="#000000" font-family="sans-serif" font-size="14" lengthAdjust="spacing" textLength="66" x="2986.3" y="1158.3467">PastLines</text><line style="stroke:#181818;stroke-width:0.5;" x1="2944" x2="3066" y1="1169.5" y2="1169.5"/><ellipse cx="2954" cy="1183.1484" fill="none" rx="3" ry="3" style="stroke:#038048;stroke-width:1.0;"/><text fill="#000000" font-family="sans-serif" font-size="14" lengthAdjust="spacing" textLength="98" x="2963" y="1186.4951">double[] value</text><line style="stroke:#181818;stroke-width:0.5;" x1="2944" x2="3066" y1="1193.7969" y2="1193.7969"/></g><!--class PricingOutput--><g id="elem_PricingOutput"><rect codeLine="123" fill="#F1F1F1" height="113.1875" id="PricingOutput" rx="2.5" ry="2.5" style="stroke:#181818;stroke-width:0.5;" width="180" x="3155" y="931"/><ellipse cx="3194.3" cy="947" fill="#ADD1B2" rx="11" ry="11" style="stroke:#181818;stroke-width:1.0;"/><path d="M3197.2688,952.6406 Q3196.6906,952.9375 3196.05,953.0781 Q3195.4094,953.2344 3194.7063,953.2344 Q3192.2063,953.2344 3190.8781,951.5938 Q3189.5656,949.9375 3189.5656,946.8125 Q3189.5656,943.6875 3190.8781,942.0313 Q3192.2063,940.375 3194.7063,940.375 Q3195.4094,940.375 3196.05,940.5313 Q3196.7063,940.6875 3197.2688,940.9844 L3197.2688,943.7031 Q3196.6438,943.125 3196.05,942.8594 Q3195.4563,942.5781 3194.8313,942.5781 Q3193.4875,942.5781 3192.8,943.6563 Q3192.1125,944.7188 3192.1125,946.8125 Q3192.1125,948.9063 3192.8,949.9844 Q3193.4875,951.0469 3194.8313,951.0469 Q3195.4563,951.0469 3196.05,950.7813 Q3196.6438,950.5 3197.2688,949.9219 L3197.2688,952.6406 Z " fill="#000000"/><text fill="#000000" font-family="sans-serif" font-size="14" lengthAdjust="spacing" textLength="94" x="3213.7" y="951.8467">PricingOutput</text><line style="stroke:#181818;stroke-width:0.5;" x1="3156" x2="3334" y1="963" y2="963"/><ellipse cx="3166" cy="976.6484" fill="none" rx="3" ry="3" style="stroke:#038048;stroke-width:1.0;"/><text fill="#000000" font-family="sans-serif" font-size="14" lengthAdjust="spacing" textLength="86" x="3175" y="979.9951">double price</text><ellipse cx="3166" cy="992.9453" fill="none" rx="3" ry="3" style="stroke:#038048;stroke-width:1.0;"/><text fill="#000000" font-family="sans-serif" font-size="14" lengthAdjust="spacing" textLength="104" x="3175" y="996.292">double[] deltas</text><ellipse cx="3166" cy="1009.2422" fill="none" rx="3" ry="3" style="stroke:#038048;stroke-width:1.0;"/><text fill="#000000" font-family="sans-serif" font-size="14" lengthAdjust="spacing" textLength="136" x="3175" y="1012.5889">double priceStdDev</text><ellipse cx="3166" cy="1025.5391" fill="none" rx="3" ry="3" style="stroke:#038048;stroke-width:1.0;"/><text fill="#000000" font-family="sans-serif" font-size="14" lengthAdjust="spacing" textLength="154" x="3175" y="1028.8857">double[] deltasStdDev</text><line style="stroke:#181818;stroke-width:0.5;" x1="3156" x2="3334" y1="1036.1875" y2="1036.1875"/></g><!--class PrcingServer--><g id="elem_PrcingServer"><rect codeLine="142" fill="#F1F1F1" height="80.5938" id="PrcingServer" rx="2.5" ry="2.5" style="stroke:#181818;stroke-width:0.5;" width="312" x="3580" y="528"/><ellipse cx="3688.25" cy="544" fill="#ADD1B2" rx="11" ry="11" style="stroke:#181818;stroke-width:1.0;"/><path d="M3691.2188,549.6406 Q3690.6406,549.9375 3690,550.0781 Q3689.3594,550.2344 3688.6563,550.2344 Q3686.1563,550.2344 3684.8281,548.5938 Q3683.5156,546.9375 3683.5156,543.8125 Q3683.5156,540.6875 3684.8281,539.0313 Q3686.1563,537.375 3688.6563,537.375 Q3689.3594,537.375 3690,537.5313 Q3690.6563,537.6875 3691.2188,537.9844 L3691.2188,540.7031 Q3690.5938,540.125 3690,539.8594 Q3689.4063,539.5781 3688.7813,539.5781 Q3687.4375,539.5781 3686.75,540.6563 Q3686.0625,541.7188 3686.0625,543.8125 Q3686.0625,545.9063 3686.75,546.9844 Q3687.4375,548.0469 3688.7813,548.0469 Q3689.4063,548.0469 3690,547.7813 Q3690.5938,547.5 3691.2188,546.9219 L3691.2188,549.6406 Z " fill="#000000"/><text fill="#000000" font-family="sans-serif" font-size="14" lengthAdjust="spacing" textLength="87" x="3708.75" y="548.8467">PrcingServer</text><line style="stroke:#181818;stroke-width:0.5;" x1="3581" x2="3891" y1="560" y2="560"/><ellipse cx="3591" cy="573.6484" fill="none" rx="3" ry="3" style="stroke:#038048;stroke-width:1.0;"/><text fill="#000000" font-family="sans-serif" font-size="14" lengthAdjust="spacing" textLength="153" x="3600" y="576.9951">GrpcPricerImpl service</text><line style="stroke:#181818;stroke-width:0.5;" x1="3581" x2="3891" y1="584.2969" y2="584.2969"/><ellipse cx="3591" cy="597.9453" fill="#84BE84" rx="3" ry="3" style="stroke:#038048;stroke-width:1.0;"/><text fill="#000000" font-family="sans-serif" font-size="14" lengthAdjust="spacing" textLength="286" x="3600" y="601.292">RunServer(nlohmann::json &amp;jsonParams)</text></g><!--class GrpcPricerImpl--><g id="elem_GrpcPricerImpl"><rect codeLine="148" fill="#F1F1F1" height="113.1875" id="GrpcPricerImpl" rx="2.5" ry="2.5" style="stroke:#181818;stroke-width:0.5;" width="747" x="3471.5" y="724.5"/><ellipse cx="3790.75" cy="740.5" fill="#ADD1B2" rx="11" ry="11" style="stroke:#181818;stroke-width:1.0;"/><path d="M3793.7188,746.1406 Q3793.1406,746.4375 3792.5,746.5781 Q3791.8594,746.7344 3791.1563,746.7344 Q3788.6563,746.7344 3787.3281,745.0938 Q3786.0156,743.4375 3786.0156,740.3125 Q3786.0156,737.1875 3787.3281,735.5313 Q3788.6563,733.875 3791.1563,733.875 Q3791.8594,733.875 3792.5,734.0313 Q3793.1563,734.1875 3793.7188,734.4844 L3793.7188,737.2031 Q3793.0938,736.625 3792.5,736.3594 Q3791.9063,736.0781 3791.2813,736.0781 Q3789.9375,736.0781 3789.25,737.1563 Q3788.5625,738.2188 3788.5625,740.3125 Q3788.5625,742.4063 3789.25,743.4844 Q3789.9375,744.5469 3791.2813,744.5469 Q3791.9063,744.5469 3792.5,744.2813 Q3793.0938,744 3793.7188,743.4219 L3793.7188,746.1406 Z " fill="#000000"/><text fill="#000000" font-family="sans-serif" font-size="14" lengthAdjust="spacing" textLength="100" x="3811.25" y="745.3467">GrpcPricerImpl</text><line style="stroke:#181818;stroke-width:0.5;" x1="3472.5" x2="4217.5" y1="756.5" y2="756.5"/><ellipse cx="3482.5" cy="770.1484" fill="none" rx="3" ry="3" style="stroke:#038048;stroke-width:1.0;"/><text fill="#000000" font-family="sans-serif" font-size="14" lengthAdjust="spacing" textLength="186" x="3491.5" y="773.4951">BlackScholesPricer &amp;pricer</text><line style="stroke:#181818;stroke-width:0.5;" x1="3472.5" x2="4217.5" y1="780.7969" y2="780.7969"/><ellipse cx="3482.5" cy="794.4453" fill="#84BE84" rx="3" ry="3" style="stroke:#038048;stroke-width:1.0;"/><text fill="#000000" font-family="sans-serif" font-size="14" lengthAdjust="spacing" textLength="721" x="3491.5" y="797.792">Status PriceAndDeltas(ServerContext *context, const PricingInput *input, PricingOutput *output) override</text><ellipse cx="3482.5" cy="810.7422" fill="#84BE84" rx="3" ry="3" style="stroke:#038048;stroke-width:1.0;"/><text fill="#000000" font-family="sans-serif" font-size="14" lengthAdjust="spacing" textLength="605" x="3491.5" y="814.0889">Status Heartbeat(ServerContext *context, const Empty* input, ReqInfo *output) override</text><ellipse cx="3482.5" cy="827.0391" fill="#84BE84" rx="3" ry="3" style="stroke:#038048;stroke-width:1.0;"/><text fill="#000000" font-family="sans-serif" font-size="14" lengthAdjust="spacing" textLength="383" x="3491.5" y="830.3857">PnlMat* convertPastToPnlMat(const PricingInput *input)</text></g><!--class BlackScholesPricer--><g id="elem_BlackScholesPricer"><rect codeLine="156" fill="#F1F1F1" height="178.375" id="BlackScholesPricer" rx="2.5" ry="2.5" style="stroke:#181818;stroke-width:0.5;" width="195" x="3747.5" y="898.5"/><ellipse cx="3776.9" cy="914.5" fill="#ADD1B2" rx="11" ry="11" style="stroke:#181818;stroke-width:1.0;"/><path d="M3779.8688,920.1406 Q3779.2906,920.4375 3778.65,920.5781 Q3778.0094,920.7344 3777.3063,920.7344 Q3774.8063,920.7344 3773.4781,919.0938 Q3772.1656,917.4375 3772.1656,914.3125 Q3772.1656,911.1875 3773.4781,909.5313 Q3774.8063,907.875 3777.3063,907.875 Q3778.0094,907.875 3778.65,908.0313 Q3779.3063,908.1875 3779.8688,908.4844 L3779.8688,911.2031 Q3779.2438,910.625 3778.65,910.3594 Q3778.0563,910.0781 3777.4313,910.0781 Q3776.0875,910.0781 3775.4,911.1563 Q3774.7125,912.2188 3774.7125,914.3125 Q3774.7125,916.4063 3775.4,917.4844 Q3776.0875,918.5469 3777.4313,918.5469 Q3778.0563,918.5469 3778.65,918.2813 Q3779.2438,918 3779.8688,917.4219 L3779.8688,920.1406 Z " fill="#000000"/><text fill="#000000" font-family="sans-serif" font-size="14" lengthAdjust="spacing" textLength="131" x="3794.1" y="919.3467">BlackScholesPricer</text><line style="stroke:#181818;stroke-width:0.5;" x1="3748.5" x2="3941.5" y1="930.5" y2="930.5"/><ellipse cx="3758.5" cy="944.1484" fill="none" rx="3" ry="3" style="stroke:#038048;stroke-width:1.0;"/><text fill="#000000" font-family="sans-serif" font-size="14" lengthAdjust="spacing" textLength="115" x="3767.5" y="947.4951">PnlMat *volatility;</text><ellipse cx="3758.5" cy="960.4453" fill="none" rx="3" ry="3" style="stroke:#038048;stroke-width:1.0;"/><text fill="#000000" font-family="sans-serif" font-size="14" lengthAdjust="spacing" textLength="169" x="3767.5" y="963.792">PnlVect *paymentDates;</text><ellipse cx="3758.5" cy="976.7422" fill="none" rx="3" ry="3" style="stroke:#038048;stroke-width:1.0;"/><text fill="#000000" font-family="sans-serif" font-size="14" lengthAdjust="spacing" textLength="114" x="3767.5" y="980.0889">PnlVect *strikes;</text><ellipse cx="3758.5" cy="993.0391" fill="none" rx="3" ry="3" style="stroke:#038048;stroke-width:1.0;"/><text fill="#000000" font-family="sans-serif" font-size="14" lengthAdjust="spacing" textLength="82" x="3767.5" y="996.3857">int nAssets;</text><ellipse cx="3758.5" cy="1009.3359" fill="none" rx="3" ry="3" style="stroke:#038048;stroke-width:1.0;"/><text fill="#000000" font-family="sans-serif" font-size="14" lengthAdjust="spacing" textLength="142" x="3767.5" y="1012.6826">double interestRate;</text><ellipse cx="3758.5" cy="1025.6328" fill="none" rx="3" ry="3" style="stroke:#038048;stroke-width:1.0;"/><text fill="#000000" font-family="sans-serif" font-size="14" lengthAdjust="spacing" textLength="102" x="3767.5" y="1028.9795">double fdStep;</text><ellipse cx="3758.5" cy="1041.9297" fill="none" rx="3" ry="3" style="stroke:#038048;stroke-width:1.0;"/><text fill="#000000" font-family="sans-serif" font-size="14" lengthAdjust="spacing" textLength="94" x="3767.5" y="1045.2764">int nSamples;</text><line style="stroke:#181818;stroke-width:0.5;" x1="3748.5" x2="3941.5" y1="1052.5781" y2="1052.5781"/><ellipse cx="3758.5" cy="1066.2266" fill="#84BE84" rx="3" ry="3" style="stroke:#038048;stroke-width:1.0;"/><text fill="#000000" font-family="sans-serif" font-size="14" lengthAdjust="spacing" textLength="152" x="3767.5" y="1069.5732">void priceAndDeltas();</text></g><!--class BlackScholesModel--><g id="elem_BlackScholesModel"><rect codeLine="167" fill="#F1F1F1" height="48" id="BlackScholesModel" rx="2.5" ry="2.5" style="stroke:#181818;stroke-width:0.5;" width="166" x="3702" y="1145.5"/><ellipse cx="3717" cy="1161.5" fill="#ADD1B2" rx="11" ry="11" style="stroke:#181818;stroke-width:1.0;"/><path d="M3719.9688,1167.1406 Q3719.3906,1167.4375 3718.75,1167.5781 Q3718.1094,1167.7344 3717.4063,1167.7344 Q3714.9063,1167.7344 3713.5781,1166.0938 Q3712.2656,1164.4375 3712.2656,1161.3125 Q3712.2656,1158.1875 3713.5781,1156.5313 Q3714.9063,1154.875 3717.4063,1154.875 Q3718.1094,1154.875 3718.75,1155.0313 Q3719.4063,1155.1875 3719.9688,1155.4844 L3719.9688,1158.2031 Q3719.3438,1157.625 3718.75,1157.3594 Q3718.1563,1157.0781 3717.5313,1157.0781 Q3716.1875,1157.0781 3715.5,1158.1563 Q3714.8125,1159.2188 3714.8125,1161.3125 Q3714.8125,1163.4063 3715.5,1164.4844 Q3716.1875,1165.5469 3717.5313,1165.5469 Q3718.1563,1165.5469 3718.75,1165.2813 Q3719.3438,1165 3719.9688,1164.4219 L3719.9688,1167.1406 Z " fill="#000000"/><text fill="#000000" font-family="sans-serif" font-size="14" lengthAdjust="spacing" textLength="134" x="3731" y="1166.3467">BlackScholesModel</text><line style="stroke:#181818;stroke-width:0.5;" x1="3703" x2="3867" y1="1177.5" y2="1177.5"/><line style="stroke:#181818;stroke-width:0.5;" x1="3703" x2="3867" y1="1185.5" y2="1185.5"/></g><!--class Option--><g id="elem_Option"><rect codeLine="171" fill="#F1F1F1" height="48" id="Option" rx="2.5" ry="2.5" style="stroke:#181818;stroke-width:0.5;" width="78" x="3903" y="1145.5"/><ellipse cx="3918" cy="1161.5" fill="#A9DCDF" rx="11" ry="11" style="stroke:#181818;stroke-width:1.0;"/><path d="M3918.1094,1156.8438 L3916.9531,1161.9219 L3919.2813,1161.9219 L3918.1094,1156.8438 Z M3916.625,1154.6094 L3919.6094,1154.6094 L3922.9688,1167 L3920.5156,1167 L3919.75,1163.9375 L3916.4688,1163.9375 L3915.7188,1167 L3913.2813,1167 L3916.625,1154.6094 Z " fill="#000000"/><text fill="#000000" font-family="sans-serif" font-size="14" font-style="italic" lengthAdjust="spacing" textLength="46" x="3932" y="1166.3467">Option</text><line style="stroke:#181818;stroke-width:0.5;" x1="3904" x2="3980" y1="1177.5" y2="1177.5"/><line style="stroke:#181818;stroke-width:0.5;" x1="3904" x2="3980" y1="1185.5" y2="1185.5"/></g><!--class ConditionalBasketOption--><g id="elem_ConditionalBasketOption"><rect codeLine="175" fill="#F1F1F1" height="48" id="ConditionalBasketOption" rx="2.5" ry="2.5" style="stroke:#181818;stroke-width:0.5;" width="203" x="3749.5" y="1280.5"/><ellipse cx="3764.5" cy="1296.5" fill="#ADD1B2" rx="11" ry="11" style="stroke:#181818;stroke-width:1.0;"/><path d="M3767.4688,1302.1406 Q3766.8906,1302.4375 3766.25,1302.5781 Q3765.6094,1302.7344 3764.9063,1302.7344 Q3762.4063,1302.7344 3761.0781,1301.0938 Q3759.7656,1299.4375 3759.7656,1296.3125 Q3759.7656,1293.1875 3761.0781,1291.5313 Q3762.4063,1289.875 3764.9063,1289.875 Q3765.6094,1289.875 3766.25,1290.0313 Q3766.9063,1290.1875 3767.4688,1290.4844 L3767.4688,1293.2031 Q3766.8438,1292.625 3766.25,1292.3594 Q3765.6563,1292.0781 3765.0313,1292.0781 Q3763.6875,1292.0781 3763,1293.1563 Q3762.3125,1294.2188 3762.3125,1296.3125 Q3762.3125,1298.4063 3763,1299.4844 Q3763.6875,1300.5469 3765.0313,1300.5469 Q3765.6563,1300.5469 3766.25,1300.2813 Q3766.8438,1300 3767.4688,1299.4219 L3767.4688,1302.1406 Z " fill="#000000"/><text fill="#000000" font-family="sans-serif" font-size="14" lengthAdjust="spacing" textLength="171" x="3778.5" y="1301.3467">ConditionalBasketOption</text><line style="stroke:#181818;stroke-width:0.5;" x1="3750.5" x2="3951.5" y1="1312.5" y2="1312.5"/><line style="stroke:#181818;stroke-width:0.5;" x1="3750.5" x2="3951.5" y1="1320.5" y2="1320.5"/></g><!--class ConditionalMaxOption--><g id="elem_ConditionalMaxOption"><rect codeLine="179" fill="#F1F1F1" height="48" id="ConditionalMaxOption" rx="2.5" ry="2.5" style="stroke:#181818;stroke-width:0.5;" width="182" x="3988" y="1280.5"/><ellipse cx="4003" cy="1296.5" fill="#ADD1B2" rx="11" ry="11" style="stroke:#181818;stroke-width:1.0;"/><path d="M4005.9688,1302.1406 Q4005.3906,1302.4375 4004.75,1302.5781 Q4004.1094,1302.7344 4003.4063,1302.7344 Q4000.9063,1302.7344 3999.5781,1301.0938 Q3998.2656,1299.4375 3998.2656,1296.3125 Q3998.2656,1293.1875 3999.5781,1291.5313 Q4000.9063,1289.875 4003.4063,1289.875 Q4004.1094,1289.875 4004.75,1290.0313 Q4005.4063,1290.1875 4005.9688,1290.4844 L4005.9688,1293.2031 Q4005.3438,1292.625 4004.75,1292.3594 Q4004.1563,1292.0781 4003.5313,1292.0781 Q4002.1875,1292.0781 4001.5,1293.1563 Q4000.8125,1294.2188 4000.8125,1296.3125 Q4000.8125,1298.4063 4001.5,1299.4844 Q4002.1875,1300.5469 4003.5313,1300.5469 Q4004.1563,1300.5469 4004.75,1300.2813 Q4005.3438,1300 4005.9688,1299.4219 L4005.9688,1302.1406 Z " fill="#000000"/><text fill="#000000" font-family="sans-serif" font-size="14" lengthAdjust="spacing" textLength="150" x="4017" y="1301.3467">ConditionalMaxOption</text><line style="stroke:#181818;stroke-width:0.5;" x1="3989" x2="4169" y1="1312.5" y2="1312.5"/><line style="stroke:#181818;stroke-width:0.5;" x1="3989" x2="4169" y1="1320.5" y2="1320.5"/></g><!--reverse link CsvToListDataFeed to IConvertisseurFile--><g id="link_CsvToListDataFeed_IConvertisseurFile"><path codeLine="21" d="M667.0769,156.5311 C604.4369,204.4811 499.27,284.97 436.63,332.91 " fill="none" id="CsvToListDataFeed-backto-IConvertisseurFile" style="stroke:#181818;stroke-width:1.0;"/><polygon fill="none" points="681.37,145.59,663.4299,151.7668,670.724,161.2955,681.37,145.59" style="stroke:#181818;stroke-width:1.0;"/></g><!--reverse link JsonToTestParams to IConvertisseurFile--><g id="link_JsonToTestParams_IConvertisseurFile"><path codeLine="22" d="M396,163.59 C396,211.54 396,284.97 396,332.91 " fill="none" id="JsonToTestParams-backto-IConvertisseurFile" style="stroke:#181818;stroke-width:1.0;"/><polygon fill="none" points="396,145.59,390,163.59,402,163.59,396,145.59" style="stroke:#181818;stroke-width:1.0;"/></g><!--reverse link ListOuputToJson to IConvertisseurFile--><g id="link_ListOuputToJson_IConvertisseurFile"><path codeLine="23" d="M183.0888,158.1035 C232.6688,206.0535 314.27,284.97 363.85,332.91 " fill="none" id="ListOuputToJson-backto-IConvertisseurFile" style="stroke:#181818;stroke-width:1.0;"/><polygon fill="none" points="170.15,145.59,178.9177,162.4164,187.26,153.7905,170.15,145.59" style="stroke:#181818;stroke-width:1.0;"/></g><!--reverse link Pricer to GrpcPricingClient--><g id="link_Pricer_GrpcPricingClient"><path codeLine="76" d="M2656.4403,458.033 C2660.8903,482.943 2663.55,497.79 2667.47,519.76 " fill="none" id="Pricer-backto-GrpcPricingClient" style="stroke:#181818;stroke-width:1.0;"/><polygon fill="none" points="2654.33,446.22,2651.4475,452.8299,2656.4403,458.033,2659.3228,451.4231,2654.33,446.22" style="stroke:#181818;stroke-width:1.0;"/></g><!--reverse link Rebalacing to FixedRebalacing--><g id="link_Rebalacing_FixedRebalacing"><path codeLine="88" d="M3257.7303,414.8439 C3252.8503,447.6339 3247.74,481.94 3242.08,519.92 " fill="none" id="Rebalacing-backto-FixedRebalacing" style="stroke:#181818;stroke-width:1.0;"/><polygon fill="none" points="3260.38,397.04,3251.7957,413.9607,3263.665,415.7271,3260.38,397.04" style="stroke:#181818;stroke-width:1.0;"/></g><!--reverse link Hedging to Pricer--><g id="link_Hedging_Pricer"><path codeLine="99" d="M2640,190.1 C2640,222.3 2640,249.72 2640,283.95 " fill="none" id="Hedging-backto-Pricer" style="stroke:#181818;stroke-width:1.0;"/><polygon fill="none" points="2640,178.1,2636,184.1,2640,190.1,2644,184.1,2640,178.1" style="stroke:#181818;stroke-width:1.0;"/></g><!--reverse link Hedging to Portfolio--><g id="link_Hedging_Portfolio"><path codeLine="100" d="M2513.9998,180.87 C2362.6298,231.65 2319.89,187 2167,233 C2110.55,249.99 2050.88,276.03 2000.81,300.43 " fill="none" id="Hedging-backto-Portfolio" style="stroke:#181818;stroke-width:1.0;"/><polygon fill="none" points="2525.31,176.86,2518.3183,175.0949,2513.9998,180.87,2520.9916,182.635,2525.31,176.86" style="stroke:#181818;stroke-width:1.0;"/></g><!--reverse link Hedging to Rebalacing--><g id="link_Hedging_Rebalacing"><path codeLine="101" d="M2766.5623,129.8426 C2865.7723,145.0026 2998.96,173.86 3113,233 C3162.17,258.5 3208.9,302.86 3237.25,332.81 " fill="none" id="Hedging-backto-Rebalacing" style="stroke:#181818;stroke-width:1.0;"/><polygon fill="none" points="2754.7,128.03,2760.0269,132.8904,2766.5623,129.8426,2761.2354,124.9822,2754.7,128.03" style="stroke:#181818;stroke-width:1.0;"/></g><!--reverse link GrpcPricer to PricingInput--><g id="link_GrpcPricer_PricingInput"><path codeLine="130" d="M3095.0366,823.5634 C3076.5766,856.9734 3052.79,900.01 3031.37,938.77 " fill="none" id="GrpcPricer-backto-PricingInput" style="stroke:#181818;stroke-width:1.0;"/><polygon fill="none" points="3100.84,813.06,3094.4372,816.3772,3095.0366,823.5634,3101.4394,820.2461,3100.84,813.06" style="stroke:#181818;stroke-width:1.0;"/></g><!--reverse link GrpcPricer to PricingOutput--><g id="link_GrpcPricer_PricingOutput"><path codeLine="131" d="M3143.6214,823.2538 C3162.9814,854.4238 3186.89,892.93 3210.41,930.8 " fill="none" id="GrpcPricer-backto-PricingOutput" style="stroke:#181818;stroke-width:1.0;"/><polygon fill="none" points="3137.29,813.06,3137.0578,820.2674,3143.6214,823.2538,3143.8536,816.0464,3137.29,813.06" style="stroke:#181818;stroke-width:1.0;"/></g><!--reverse link PricingInput to PastLines--><g id="link_PricingInput_PastLines"><path codeLine="133" d="M3005,1048.26 C3005,1080.24 3005,1109.41 3005,1137.26 " fill="none" id="PricingInput-backto-PastLines" style="stroke:#181818;stroke-width:1.0;"/><polygon fill="none" points="3005,1036.26,3001,1042.26,3005,1048.26,3009,1042.26,3005,1036.26" style="stroke:#181818;stroke-width:1.0;"/></g><!--reverse link BlackScholesPricer to BlackScholesModel--><g id="link_BlackScholesPricer_BlackScholesModel"><path codeLine="183" d="M3811.8226,1088.0333 C3803.3826,1113.3333 3798.69,1127.44 3792.79,1145.13 " fill="none" id="BlackScholesPricer-backto-BlackScholesModel" style="stroke:#181818;stroke-width:1.0;"/><polygon fill="none" points="3815.62,1076.65,3809.9269,1081.0758,3811.8226,1088.0333,3817.5157,1083.6075,3815.62,1076.65" style="stroke:#181818;stroke-width:1.0;"/></g><!--reverse link BlackScholesPricer to Option--><g id="link_BlackScholesPricer_Option"><path codeLine="184" d="M3898.2014,1087.2144 C3911.8314,1112.5144 3919.88,1127.44 3929.41,1145.13 " fill="none" id="BlackScholesPricer-backto-Option" style="stroke:#181818;stroke-width:1.0;"/><polygon fill="none" points="3892.51,1076.65,3891.8342,1083.8294,3898.2014,1087.2144,3898.8772,1080.0351,3892.51,1076.65" style="stroke:#181818;stroke-width:1.0;"/></g><!--reverse link PrcingServer to GrpcPricerImpl--><g id="link_PrcingServer_GrpcPricerImpl"><path codeLine="185" d="M3762.0181,619.746 C3778.8581,652.266 3797.38,688.04 3816.16,724.3 " fill="none" id="PrcingServer-backto-GrpcPricerImpl" style="stroke:#181818;stroke-width:1.0;"/><polygon fill="none" points="3756.5,609.09,3755.707,616.2574,3762.0181,619.746,3762.811,612.5787,3756.5,609.09" style="stroke:#181818;stroke-width:1.0;"/></g><!--reverse link GrpcPricerImpl to BlackScholesPricer--><g id="link_GrpcPricerImpl_BlackScholesPricer"><path codeLine="186" d="M3845,849.61 C3845,868.3 3845,877.63 3845,898.2 " fill="none" id="GrpcPricerImpl-backto-BlackScholesPricer" style="stroke:#181818;stroke-width:1.0;"/><polygon fill="none" points="3845,837.61,3841,843.61,3845,849.61,3849,843.61,3845,837.61" style="stroke:#181818;stroke-width:1.0;"/></g><!--reverse link Option to ConditionalBasketOption--><g id="link_Option_ConditionalBasketOption"><path codeLine="187" d="M3915.9853,1208.5252 C3899.3853,1232.7852 3883.62,1255.82 3866.97,1280.15 " fill="none" id="Option-backto-ConditionalBasketOption" style="stroke:#181818;stroke-width:1.0;"/><polygon fill="none" points="3926.15,1193.67,3911.0335,1205.137,3920.937,1211.9135,3926.15,1193.67" style="stroke:#181818;stroke-width:1.0;"/></g><!--reverse link Option to ConditionalMaxOption--><g id="link_Option_ConditionalMaxOption"><path codeLine="188" d="M3978.7777,1206.2053 C4003.7777,1230.4653 4029.89,1255.82 4054.95,1280.15 " fill="none" id="Option-backto-ConditionalMaxOption" style="stroke:#181818;stroke-width:1.0;"/><polygon fill="none" points="3965.86,1193.67,3974.5992,1210.5112,3982.9561,1201.8994,3965.86,1193.67" style="stroke:#181818;stroke-width:1.0;"/></g><!--link Convertisseur to MultiCashFlowCommon--><g id="link_Convertisseur_MultiCashFlowCommon"><path codeLine="194" d="M942.0369,150.3187 C942.3498,151.7128 942.6696,153.1378 942.9959,154.5919 C948.2175,177.8569 955.1088,208.56 962,239.2625 C968.8913,269.965 975.7825,300.6669 981.0041,323.9294 C981.3304,325.3833 981.6502,326.8081 981.9631,328.2021 " fill="none" id="Convertisseur-MultiCashFlowCommon" style="stroke:#181818;stroke-width:1.0;"/><text fill="#000000" font-family="sans-serif" font-size="13" lengthAdjust="spacing" textLength="522" x="959" y="221.0669">Conversion des donn&#233;es JSON et CSV vers des classes de MultiCashFlowCommon</text></g><!--link HedginigEngine to MultiCashFlowCommon--><g id="link_HedginigEngine_MultiCashFlowCommon"><path codeLine="196" d="M1581.9592,129.4852 C1581.8834,129.6173 1581.807,129.7501 1581.7301,129.8836 C1581.5763,130.1505 1581.4204,130.4202 1581.2626,130.6925 C1580.9468,131.2371 1580.623,131.7922 1580.291,132.3574 C1579.6271,133.4878 1578.931,134.6584 1578.2031,135.8652 C1576.7473,138.2789 1575.1647,140.8372 1573.4596,143.508 C1570.0494,148.8495 1566.1494,154.6406 1561.795,160.6225 C1544.3775,184.55 1519.69,211.53 1490,225 C1465.66,236.04 1029.06,215.34 1009,233 C1006.2831,235.3913 1003.8286,237.9841 1001.6145,240.7447 C1000.5075,242.125 999.4605,243.5472 998.4709,245.0072 C997.9761,245.7371 997.4956,246.4765 997.0291,247.2248 C996.7959,247.599 996.5662,247.9753 996.3399,248.3539 C996.2267,248.5431 996.1144,248.7329 996.003,248.9233 " fill="none" id="HedginigEngine-MultiCashFlowCommon" style="stroke:#181818;stroke-width:1.0;"/></g><!--link GrpcPricingClient to Grpc--><g id="link_GrpcPricingClient_Grpc"><path codeLine="198" d="M2718.88,617 C2746.46,647.56 2782.53,687.525 2812.0513,720.2338 C2826.8119,736.5881 2839.9353,751.1284 2849.5417,761.772 C2851.9433,764.4329 2854.1251,766.8503 2856.0577,768.9916 C2856.5409,769.5269 2857.0084,770.0449 2857.46,770.5452 C2857.5729,770.6703 2857.6847,770.7943 2857.7956,770.9171 " fill="none" id="GrpcPricingClient-Grpc" style="stroke:#181818;stroke-width:1.0;"/><text fill="#000000" font-family="sans-serif" font-size="13" lengthAdjust="spacing" textLength="70" x="2777" y="678.0669">Grpc Client</text></g><!--link PrcingServer to Grpc--><g id="link_PrcingServer_Grpc"><path codeLine="200" d="M3614.22,609.03 C3554.77,626.69 3481.82,645.97 3415,657 C3355.58,666.8 2917.17,648.01 2874,690 C2870.4575,693.445 2867.6656,697.4048 2865.4933,701.7007 C2864.9502,702.7746 2864.4459,703.8696 2863.9782,704.9827 C2863.8613,705.261 2863.7466,705.5404 2863.6343,705.821 " fill="none" id="PrcingServer-Grpc" style="stroke:#181818;stroke-width:1.0;"/><text fill="#000000" font-family="sans-serif" font-size="13" lengthAdjust="spacing" textLength="76" x="3012" y="678.0669">Grpc Server</text></g><!--SRC=[nLTDSjis5Dxp55Xb95NE0MpNCuaK9yx4jSPIlSba0PFF5ceAO058iSVjWNgENgpl0I05a93Ihgg5mC7x__i0DBnyue_0PahkG5jX36mrUoqO_eIqe1zu2Umg8L-A6W8B_NvYZLOMIWiLu_V6QbvQXekGZsosXesGZlNFmYrbpOrXCxDRgI_2s3ct_19GCjP7XFEMSj7w1hFbNIeq6WyrVpPAhjGAZ5rmpJScKTng-hoy-MMb70DWZ2QdY0pTR9kjNIdIoRAAOYRKcUeP1dd-nyb9BfcEVU3vKUw-UmUPqPcY2LM-tjPMpBXPNzRg-qnjDZwkAEfiFTXSb5OeoVNBkI_ib5LgUr_31LjeKReqi4W0jS1ARC1zi65kRxOMFITRYPr4BDhtjjWThxVnzjnjV_t6vb1RRXA7KzBILdFOnGn1fVD-QCbjHqA9yrs5NEkqwKEMEDEVe7eKKZn-aBYqq-Bb5qhR1rKBbSRkBLDnaamUpZpMhr564DdaabXrkVU4dH8L-xMXRISw-g5kDcNxXdZ0l_4mLH_1TW6v0eqo4fIPA06KNPr4_r4t9MsZ4xDQWBGiB4E33KaFzx7MbQlr8H5VpYE2WoPnVhwJbU-XBYuKQ3Zs-vJTArKpd25X5QMFCdyBl5nZx5ENE5S7ItzZTXf2UaknXi-UXSPdu4hYS8p9XnXnq2JIOZWX13Fs2_PN5i26EKrcshcnvb92pTerKn7GGNZlzh6wZGBmywhIO0o5lHTaFpC9toFLR_jMHi6JyLaNVeWfD8r2b1iOzHpTsUF3PxTmpsjEN2bskwfT6K-MH1ybCvD9vQLuXYhIjrTtGgSaZiisxbM_kG0jL9Mqga9mrWBt_fCFaM67yZrlOaSzx3mcyVRmAXmk_JxNxH8H8iDpe1C-CdhmjBxc-WayjXTzhZtkNpXN8UtRrdigSknDij-Xvu0KkLkaQ4mTavvp-yPBSXNQollP1u15F9x39ed9gT9sIblaw3TZ5aA6CEQ096EtLPyOxS1jHw3C3heRGdtzVu0sU1HLewrzbyaZ3C7tFK1qGewfoqleXguTlARaQ4uIGtgMe7S73YdGLvkcPWOvqjl3xLPwiP6irNg3I7Pw-XjTpjxGln-ySN4OgOFYsEPxREYdPRbMDPYGW3Skoph6ygNbTclw_UfzmIkXXMVB9gN_c3ByC3RDrqJGCkqbTgBSEjxZLiRe9-3QtWEtFx3tOTFObmaBXcxXzolve8OcuhcHzJMt4vAdIotL4uyyjpaw64Fkmf59ukl03fliLCsjg8LzEKkfTmXzRDBmbmqUDZIY9ij0HzzJIgDpGBx3sxXDjiEuk0SMelCjgioG7wgbXMQWRicnIL8pxchNfDKVdmqRBKx4DPvDTNHxpHoXDmtT3tiyuG6dPEMkdhn-pmq2_h_ZlURFMSPCXMY41_uUO_QA0nP48nnV6Vo4zI353LtVt68_PC5ZT_OUYFiONnUp3zL1KVhSHlxSo-mqF3CDQQqGnoebvTz_uGUzDHdWlMDvnuZ1KLsoYIl_pYkAtflaWDMY65uSGmR3PQwxcnT9ddjCORVu1m00]--></g></svg>